<svg id="Layer_1" data-name="Layer 1" xmlns="http://www.w3.org/2000/svg" viewBox="0 0 894.03 867.25"><defs><style>.cls-1{fill:#231f20;}.cls-2{fill:#fff;}</style></defs><path class="cls-1" d="M187,214.49c-21.6-35.79-54.92-46.26-91.84-28-8.08,4-8.24.95-8.21-5.46.11-23,.59-46-.25-69-.38-10.48,2.86-13.44,13.11-13.36,51.51.38,103,0,154.52.06,80,0,160,.18,240.05,0,7.91,0,13.66,2.34,19.62,7.67,52.71,47.16,105.76,93.94,158.7,140.84,2.38,2.11,4.7,5.81,7.87,4.76,4.59-1.52,2.42-6.33,2.43-9.68.19-43.69.45-87.38.07-131.06-.08-9.49,2.56-12.63,12.35-12.59q123.48.49,247,0c8.62,0,12.23,2,12.21,11.46q-.51,327-.58,654a8.7,8.7,0,0,1-.85,2.58c-39.42-14-82.88-12.81-120.39-35.25-67-40.12-130.3-84.39-178-147.43-22.35-29.53-22.36-66.08-.57-96.29,33-45.68,78.22-77,126-104.87,27.52-16.06,56.3-28,88.83-30.91,24.35-2.15,37.78-21.23,35.59-45.43-1.76-19.5-20.29-34.6-41.67-34-17.26.51-34.25,14.89-35.93,32-1.41,14.44-8.44,25.14-19,33.85-33.53,27.76-71.81,47.7-110.88,66.25-25.26,12-50.7,23.29-78.12,30-26.18,6.41-58.57-4.34-72.25-27.63C529.77,378,525,345.86,529,312.75c1.19-9.71,6.78-18.78,12.76-27.11,8.74-12.17,7.14-25.87-3.57-35.86-9.9-9.23-25.73-9.85-35.22-1.38-9.68,8.64-12.24,25.36-4.42,36.2,15.16,21,16.79,44,11.49,68.26-4.39,20.17-8,40.56-19.64,58.32C471.32,440.23,443.22,451,412,436.9c-75-33.8-140.81-80.62-194.72-143.27-6.54-7.59-13-15.64-14.36-26.25a54.19,54.19,0,0,1-1.55-10.82C200.54,237.21,197.49,229,187,214.49Z" transform="translate(-60.6 -98.67)"/><path class="cls-1" d="M556.4,647.73c7.29-9.06,6.14-6.23,7.29-9.06,27.74-19.65,58.76-13.72,85.24.08a625.58,625.58,0,0,1,83.35,51.6A256.74,256.74,0,0,1,760.37,714c4,3.94-9.88-6.38,0,0,16.32,10.54,55.86,49.73,67.27,65.65,4.31,8.52-4.46-5.87,0,0l.06.11c4.56,9.69,17.82,31.91,17.43,45.67,0,.8.78.2,0,0l1.76,8.15c1,.14.79,3.38,1.93,4.89,7.75,37.5,57.73,66.25,97.14,40.77,6.27-4.06,9.14-2.52,7.81,8.91a316.47,316.47,0,0,0-.19,67.62c1,10-3.36,10.17-9.39,10.15-23.88-.08-47.76,0-71.64,0q-161.88-.12-323.77-.12c-8.23,0-14.91-1.7-21.31-7.15-54.15-46.14-107-93.75-159.73-141.5-4.74-4.25-9.07-9.9-10.74,1.85-2.77,5.17-1.82,10.79-1.83,16.24-.09,38.14-.27,76.28.1,114.42.1,10.35-2.63,14.38-14,14.31q-118.54-.72-237.09,0c-11.28.06-14.11-3.84-14.09-14.24.16-74-.31-148,0-221.92.06-13.28.63-36.42.78-82.73.16-48.91-.32-62.29-.66-137.25-.27-58.57-.29-121,.31-121h0c-.81.08.4-42.72-.29-69.68-.06-2.55-.74-9.1,2.93-11.78,1.77-1.29,4.59-1.5,9.1,0,45.34,4.64,88,17.2,126.75,41.95,54.46,34.78,104.87,74.42,147.77,123,18.29,20.72,30,43.94,22.8,72.84-2.43-2.1-.54-2.52,0,0,1.33-6.61-.24,1.32,0,0l-1.46,8.27c-1.64,9.27-6.07,17.13-11.71,24.65-9.58,12.78-2.68,2.32-13.72,17.77-4.26,6-3.64,5.66-6.8,9.12-13.16,14.44-10.07,12.06-24.41,22.61-3.77,2.77-22.79,16.25-27.85,21.89-37.56,27.06-76,52.39-121.74,63.88-3.52.88-7.22,2.18-10.71,1.89,0,0-17.52.27-35.43,15.19-5.82,4.85-12.34,21.31-12.73,25.89a24.18,24.18,0,0,0,.13,5.51,6.89,6.89,0,0,0,1.69,3.9c1.52,2.14-.63-.49-.19-.55a45.4,45.4,0,0,0,12.35,19c4,3.69,6.12,6.23,9.4,8.31a34.05,34.05,0,0,0,10.86,4.31c11.16,2.71,21.72.8,27.38-.63,1.08-.26-1.76.75,0,0,11.72-4.94,22.71-17.45,25.54-27.44,2.25-8,.65-31.49,7.81-35l9.89-7.43c24.69-22.23,54.47-36.46,83.42-51.78a585.68,585.68,0,0,1,80.23-35.61c23.47-8.21,47.2-11.11,70.2,2.23a64.71,64.71,0,0,1,11.56,12.28c9.2,12,12.67,18.55,15.79,25.3,5.7,12.36,7.06,14.12,7.84,22.34,2.55,27,11.17,50.51-8.39,76.25,0,0-1.59,2.1-2.68,7.62-5.27,26.75,2.94,40,29.63,41.35,11.17,0,15.91-3,22.84-16.94,5.65-11.38-1.58-23.47-8.41-32.5l.09.13c-7.44-23.14-10.64-46.59-5.6-70.71l-.08-.77c2.49-11.13,6.59-19.76,8.57-25.15,3.27-8.9,4.43-13.86,7.53-20.63" transform="translate(-60.6 -98.67)"/><path class="cls-1" d="M90.05,470.58c1,149.61,1,163.26,1,163.26" transform="translate(-60.6 -98.67)"/><circle class="cls-2" cx="114.62" cy="659.17" r="41.56"/><circle class="cls-2" cx="113.62" cy="657.17" r="41.56"/><circle class="cls-2" cx="519.34" cy="795.24" r="30.4" transform="translate(-325.39 160.61) rotate(-22.5)"/><path class="cls-2" d="M168.23,189c33.29,22.86,37,68.69,17.7,95.34-26.15,36.19-91.24,32.43-115.39-3.8-14.19-21.3-13-52,2.35-73.85C93,178.1,136,166.85,168.23,189Z" transform="translate(-60.6 -98.67)"/></svg>